<svg xmlns="http://www.w3.org/2000/svg" viewBox="0 0 235.9 82.39"><defs><style>.cls-1{fill:#b42e4a;stroke:#398e40;stroke-width:7px;}.cls-1,.cls-4{stroke-miterlimit:10;}.cls-2{fill:#211915;}.cls-3,.cls-4{fill:#fff;}.cls-4{stroke:#211915;}</style></defs><title>Recurso 1</title><g id="Capa_2" data-name="Capa 2"><g id="Capa_1-2" data-name="Capa 1"><path class="cls-1" d="M118,78.89c63.21,0,114.45-33.75,114.45-75.39H3.5C3.5,45.14,54.74,78.89,118,78.89Z"/><circle class="cls-2" cx="33.9" cy="27.59" r="6.73"/><circle class="cls-2" cx="57.44" cy="44.27" r="4.42"/><circle class="cls-2" cx="58.63" cy="21.46" r="3.23"/><circle class="cls-2" cx="84.15" cy="23.24" r="6.33"/><circle class="cls-2" cx="77.16" cy="59.37" r="5.01"/><circle class="cls-2" cx="176.17" cy="28.83" r="7.37"/><circle class="cls-2" cx="159.71" cy="36.82" r="5.93"/><circle class="cls-2" cx="82.83" cy="39.46" r="4.62"/><circle class="cls-2" cx="176.17" cy="50.4" r="7.65"/><circle class="cls-2" cx="199.99" cy="22.51" r="5.6"/><circle class="cls-3" cx="131.09" cy="25.61" r="7.38"/><circle class="cls-2" cx="131.09" cy="26.14" r="4.09"/><circle class="cls-3" cx="109.46" cy="25.61" r="7.38"/><circle class="cls-2" cx="109.46" cy="26.14" r="4.09"/><circle class="cls-2" cx="155.62" cy="21.46" r="4.09"/><rect class="cls-4" x="94.3" y="48.89" width="12.86" height="16.02"/><rect class="cls-4" x="121" y="48.89" width="12.86" height="16.02"/><rect class="cls-4" x="107.65" y="48.89" width="12.86" height="16.02"/><rect class="cls-4" x="134.65" y="48.89" width="12.86" height="16.02"/></g></g></svg>